<?xml version="1.0" encoding="UTF-8"?>
<mxfile>
  <diagram name="Deployment">
    <mxGraphModel dx="2000" dy="2000" grid="1" gridSize="10" guides="1" tooltips="1" connect="1" arrows="1" fold="1" shadow="0" math="0">
      <root>
        <mxCell id="0"/>
        <mxCell id="1" parent="0"/>

        <!-- Load Balancer -->
        <mxCell id="load-balancer" value="Load Balancer" style="shape=hexagon;fillColor=#AED6F1;strokeColor=#1F618D;" vertex="1" parent="1">
          <mxGeometry x="400" y="50" width="150" height="60" as="geometry"/>
        </mxCell>

        <!-- Application Servers -->
        <mxCell id="app-server-1" value="App Server 1" style="shape=rectangle;fillColor=#D5DBDB;strokeColor=#2C3E50;" vertex="1" parent="1">
          <mxGeometry x="300" y="200" width="150" height="60" as="geometry"/>
        </mxCell>
        <mxCell id="app-server-2" value="App Server 2" style="shape=rectangle;fillColor=#D5DBDB;strokeColor=#2C3E50;" vertex="1" parent="1">
          <mxGeometry x="500" y="200" width="150" height="60" as="geometry"/>
        </mxCell>

        <!-- Database Cluster -->
        <mxCell id="db-cluster" value="Database Cluster" style="shape=cylinder;fillColor=#D6EAF8;strokeColor=#3498DB;" vertex="1" parent="1">
          <mxGeometry x="400" y="400" width="150" height="60" as="geometry"/>
        </mxCell>

        <!-- Cache Cluster -->
        <mxCell id="cache-cluster" value="Cache Cluster" style="shape=ellipse;fillColor=#FAD7A0;strokeColor=#D35400;" vertex="1" parent="1">
          <mxGeometry x="600" y="400" width="150" height="60" as="geometry"/>
        </mxCell>

        <!-- Kafka Cluster -->
        <mxCell id="kafka-cluster" value="Kafka Cluster" style="shape=hexagon;fillColor=#A9DFBF;strokeColor=#28B463;" vertex="1" parent="1">
          <mxGeometry x="200" y="400" width="150" height="60" as="geometry"/>
        </mxCell>

        <!-- Connections -->
        <mxCell id="arrow1" style="edgeStyle=elbowEdgeStyle;rounded=0;orthogonalLoop=1;jettySize=auto;orthogonal=0;" edge="1" parent="1" source="load-balancer" target="app-server-1">
          <mxGeometry relative="1" as="geometry"/>
        </mxCell>
        <mxCell id="arrow2" style="edgeStyle=elbowEdgeStyle;rounded=0;orthogonalLoop=1;jettySize=auto;orthogonal=0;" edge="1" parent="1" source="load-balancer" target="app-server-2">
          <mxGeometry relative="1" as="geometry"/>
        </mxCell>
        <mxCell id="arrow3" style="edgeStyle=elbowEdgeStyle;rounded=0;orthogonalLoop=1;jettySize=auto;orthogonal=0;" edge="1" parent="1" source="app-server-1" target="db-cluster">
          <mxGeometry relative="1" as="geometry"/>
        </mxCell>
        <mxCell id="arrow4" style="edgeStyle=elbowEdgeStyle;rounded=0;orthogonalLoop=1;jettySize=auto;orthogonal=0;" edge="1" parent="1" source="app-server-2" target="db-cluster">
          <mxGeometry relative="1" as="geometry"/>
        </mxCell>
        <mxCell id="arrow5" style="edgeStyle=elbowEdgeStyle;rounded=0;orthogonalLoop=1;jettySize=auto;orthogonal=0;" edge="1" parent="1" source="app-server-1" target="cache-cluster">
          <mxGeometry relative="1" as="geometry"/>
        </mxCell>
        <mxCell id="arrow6" style="edgeStyle=elbowEdgeStyle;rounded=0;orthogonalLoop=1;jettySize=auto;orthogonal=0;" edge="1" parent="1" source="app-server-2" target="cache-cluster">
          <mxGeometry relative="1" as="geometry"/>
        </mxCell>
        <mxCell id="arrow7" style="edgeStyle=elbowEdgeStyle;rounded=0;orthogonalLoop=1;jettySize=auto;orthogonal=0;" edge="1" parent="1" source="app-server-1" target="kafka-cluster">
          <mxGeometry relative="1" as="geometry"/>
        </mxCell>
        <mxCell id="arrow8" style="edgeStyle=elbowEdgeStyle;rounded=0;orthogonalLoop=1;jettySize=auto;orthogonal=0;" edge="1" parent="1" source="app-server-2" target="kafka-cluster">
          <mxGeometry relative="1" as="geometry"/>
        </mxCell>
      </root>
    </mxGraphModel>
  </diagram>
</mxfile>
